HIERARCHY
ROOT Hip
{
	OFFSET	0.0000	0.0000	0.0000
	CHANNELS 6 Xposition Yposition Zposition Xrotation Yrotation Zrotation
	JOINT LowerSpine
	{
		OFFSET	0.0000	8.3155	-4.4999
		CHANNELS 3 Xrotation Yrotation Zrotation
		JOINT MiddleSpine
		{
			OFFSET	0.0000	7.5885	0.3964
			CHANNELS 3 Xrotation Yrotation Zrotation
			JOINT Chest
			{
				OFFSET	0.0000	9.3899	-2.0901
				CHANNELS 3 Xrotation Yrotation Zrotation
				JOINT Neck
				{
					OFFSET	0.0000	21.1598	-0.4401
					CHANNELS 3 Xrotation Yrotation Zrotation
					JOINT Head
					{
						OFFSET	0.0000	11.9492	3.2502
						CHANNELS 3 Xrotation Yrotation Zrotation
						End Site
						{
							OFFSET	0.0001	16.6961	0.4984
						}
					}
				}
				JOINT LClavicle
				{
					OFFSET	2.1363	20.4203	6.9961
					CHANNELS 3 Xrotation Yrotation Zrotation
					JOINT LShoulder
					{
						OFFSET	12.4803	2.9290	-4.7394
						CHANNELS 3 Xrotation Yrotation Zrotation
						JOINT LForearm
						{
							OFFSET	26.5107	-0.0942	-0.2297
							CHANNELS 3 Xrotation Yrotation Zrotation
							JOINT LHand
							{
								OFFSET	22.1155	0.0642	-0.1324
								CHANNELS 3 Xrotation Yrotation Zrotation
								JOINT LFinger1
								{
									OFFSET	8.5713	0.7496	2.3806
									CHANNELS 3 Xrotation Yrotation Zrotation
									JOINT LFinger11
									{
										OFFSET	3.2061	-0.7818	0.5649
										CHANNELS 3 Xrotation Yrotation Zrotation
										JOINT LFinger12
										{
											OFFSET	2.1887	-0.5340	0.3858
											CHANNELS 3 Xrotation Yrotation Zrotation
											End Site
											{
												OFFSET	1.5575	-0.4649	0.2526
											}
										}
									}
								}
								JOINT LFinger2
								{
									OFFSET	8.6993	0.8657	0.2073
									CHANNELS 3 Xrotation Yrotation Zrotation
									JOINT LFinger21
									{
										OFFSET	3.9642	0.0111	-0.0234
										CHANNELS 3 Xrotation Yrotation Zrotation
										JOINT LFinger22
										{
											OFFSET	2.1972	0.0067	-0.0134
											CHANNELS 3 Xrotation Yrotation Zrotation
											End Site
											{
												OFFSET	1.9736	-0.1394	0.0027
											}
										}
									}
								}
								JOINT LFinger3
								{
									OFFSET	8.2443	0.5776	-1.9504
									CHANNELS 3 Xrotation Yrotation Zrotation
									JOINT LFinger31
									{
										OFFSET	3.5971	-0.1821	-0.2252
										CHANNELS 3 Xrotation Yrotation Zrotation
										JOINT LFinger32
										{
											OFFSET	2.0497	-0.1031	-0.1288
											CHANNELS 3 Xrotation Yrotation Zrotation
											End Site
											{
												OFFSET	1.8124	-0.2228	-0.0857
											}
										}
									}
								}
								JOINT LFinger4
								{
									OFFSET	7.6504	-0.5814	-3.3685
									CHANNELS 3 Xrotation Yrotation Zrotation
									JOINT LFinger41
									{
										OFFSET	2.2125	-0.4614	-0.6108
										CHANNELS 3 Xrotation Yrotation Zrotation
										JOINT LFinger42
										{
											OFFSET	1.6225	-0.3379	-0.4481
											CHANNELS 3 Xrotation Yrotation Zrotation
											End Site
											{
												OFFSET	1.4401	-0.3957	-0.3304
											}
										}
									}
								}
								JOINT LFinger0
								{
									OFFSET	1.7730	-1.3420	1.3441
									CHANNELS 3 Xrotation Yrotation Zrotation
									JOINT LFinger01
									{
										OFFSET	3.3012	-1.0843	2.4890
										CHANNELS 3 Xrotation Yrotation Zrotation
										JOINT LFinger02
										{
											OFFSET	2.1738	-0.7778	1.5662
											CHANNELS 3 Xrotation Yrotation Zrotation
											End Site
											{
												OFFSET	1.5985	-0.5503	1.0946
											}
										}
									}
								}
							}
						}
					}
				}
				JOINT RClavicle
				{
					OFFSET	-2.1363	20.4203	6.9961
					CHANNELS 3 Xrotation Yrotation Zrotation
					JOINT RShoulder
					{
						OFFSET	-12.4825	2.9295	-4.7402
						CHANNELS 3 Xrotation Yrotation Zrotation
						JOINT RForearm
						{
							OFFSET	-26.5107	-0.0941	-0.2297
							CHANNELS 3 Xrotation Yrotation Zrotation
							JOINT RHand
							{
								OFFSET	-22.1155	0.0642	-0.1324
								CHANNELS 3 Xrotation Yrotation Zrotation
								JOINT RFinger1
								{
									OFFSET	-8.5713	0.7496	2.3806
									CHANNELS 3 Xrotation Yrotation Zrotation
									JOINT RFinger11
									{
										OFFSET	-3.2061	-0.7818	0.5649
										CHANNELS 3 Xrotation Yrotation Zrotation
										JOINT RFinger12
										{
											OFFSET	-2.1887	-0.5340	0.3858
											CHANNELS 3 Xrotation Yrotation Zrotation
											End Site
											{
												OFFSET	-1.5575	-0.4649	0.2526
											}
										}
									}
								}
								JOINT RFinger2
								{
									OFFSET	-8.6993	0.8657	0.2073
									CHANNELS 3 Xrotation Yrotation Zrotation
									JOINT RFinger21
									{
										OFFSET	-3.9642	0.0111	-0.0234
										CHANNELS 3 Xrotation Yrotation Zrotation
										JOINT RFinger22
										{
											OFFSET	-2.1972	0.0067	-0.0134
											CHANNELS 3 Xrotation Yrotation Zrotation
											End Site
											{
												OFFSET	-1.9736	-0.1394	0.0027
											}
										}
									}
								}
								JOINT RFinger3
								{
									OFFSET	-8.2443	0.5776	-1.9504
									CHANNELS 3 Xrotation Yrotation Zrotation
									JOINT RFinger31
									{
										OFFSET	-3.5971	-0.1821	-0.2252
										CHANNELS 3 Xrotation Yrotation Zrotation
										JOINT RFinger32
										{
											OFFSET	-2.0497	-0.1031	-0.1288
											CHANNELS 3 Xrotation Yrotation Zrotation
											End Site
											{
												OFFSET	-1.8124	-0.2228	-0.0857
											}
										}
									}
								}
								JOINT RFinger4
								{
									OFFSET	-7.6504	-0.5814	-3.3685
									CHANNELS 3 Xrotation Yrotation Zrotation
									JOINT RFinger41
									{
										OFFSET	-2.2125	-0.4614	-0.6108
										CHANNELS 3 Xrotation Yrotation Zrotation
										JOINT RFinger42
										{
											OFFSET	-1.6225	-0.3379	-0.4481
											CHANNELS 3 Xrotation Yrotation Zrotation
											End Site
											{
												OFFSET	-1.4401	-0.3957	-0.3304
											}
										}
									}
								}
								JOINT RFinger0
								{
									OFFSET	-1.7730	-1.3420	1.3441
									CHANNELS 3 Xrotation Yrotation Zrotation
									JOINT RFinger01
									{
										OFFSET	-3.3012	-1.0843	2.4890
										CHANNELS 3 Xrotation Yrotation Zrotation
										JOINT RFinger02
										{
											OFFSET	-2.1738	-0.7778	1.5662
											CHANNELS 3 Xrotation Yrotation Zrotation
											End Site
											{
												OFFSET	-1.5985	-0.5503	1.0946
											}
										}
									}
								}
							}
						}
					}
				}
			}
		}
	}
	JOINT RThigh
	{
		OFFSET	-8.8955	3.7588	-0.7333
		CHANNELS 3 Xrotation Yrotation Zrotation
		JOINT RShin
		{
			OFFSET	-0.7118	-38.6915	0.0000
			CHANNELS 3 Xrotation Yrotation Zrotation
			JOINT RFoot
			{
				OFFSET	0.0000	-37.9926	0.0000
				CHANNELS 3 Xrotation Yrotation Zrotation
				JOINT RToe
				{
					OFFSET	0.0000	-4.1757	8.7320
					CHANNELS 3 Xrotation Yrotation Zrotation
					End Site
					{
						OFFSET	0.0000	0.0000	5.8580
					}
				}
			}
		}
	}
	JOINT LThigh
	{
		OFFSET	8.8954	3.7591	-0.7333
		CHANNELS 3 Xrotation Yrotation Zrotation
		JOINT LShin
		{
			OFFSET	0.7119	-38.6917	0.0000
			CHANNELS 3 Xrotation Yrotation Zrotation
			JOINT LFoot
			{
				OFFSET	0.0000	-37.9926	0.0000
				CHANNELS 3 Xrotation Yrotation Zrotation
				JOINT LToe
				{
					OFFSET	0.0000	-4.1757	8.7320
					CHANNELS 3 Xrotation Yrotation Zrotation
					End Site
					{
						OFFSET	0.0000	0.0000	5.8580
					}
				}
			}
		}
	}
}
MOTION
Frames:	7
Frame Time: 0.0333333000
	-7.1675	77.8875	-5.7315	0.657328	-1.397197	8.453903	-0.563671	1.163774	-3.529460	-0.563671	1.163774	-3.529460	-0.563671	1.163774	-3.529460	0.000000	0.000000	0.000000	0.000000	0.000000	0.000000	0.000000	0.000000	13.487030	-25.147740	-42.546940	6.297068	-12.768440	-14.035220	11.099090	0.000000	0.000000	0.000000	0.000000	0.000000	0.000000	0.000000	0.000000	0.000000	0.000000	0.000000	0.000000	0.000000	0.000000	0.000000	0.000000	0.000000	0.000000	0.000000	0.000000	0.000000	0.000000	0.000000	0.000000	0.000000	0.000000	0.000000	0.000000	0.000000	0.000000	0.000000	0.000000	0.000000	0.000000	0.000000	0.000000	0.000000	0.000000	0.000000	0.000000	0.000000	0.000000	0.000000	0.000000	0.000000	0.000000	0.000000	0.000000	0.000000	0.000000	-16.942160	-45.534050	41.309090	0.836529	-11.969090	6.637948	-13.178170	0.000000	0.000000	0.000000	0.000000	0.000000	0.000000	0.000000	0.000000	0.000000	0.000000	0.000000	0.000000	0.000000	0.000000	0.000000	0.000000	0.000000	0.000000	0.000000	0.000000	0.000000	0.000000	0.000000	0.000000	0.000000	0.000000	0.000000	0.000000	0.000000	0.000000	0.000000	0.000000	0.000000	0.000000	0.000000	0.000000	0.000000	0.000000	0.000000	0.000000	0.000000	0.000000	0.000000	0.000000	0.000000	0.000000	0.000000	0.000000	14.008530	-2.433876	-17.501310	0.200040	-0.009570	-5.660282	-1.345252	-1.183004	-0.582159	-2.676562	0.000000	0.000000	8.115347	-0.317576	-6.640865	-1.662752	-0.076028	5.275169	-1.262555	0.502438	0.247826	-0.000001	0.000000	0.000000
	-8.0767	77.9398	-5.6613	-0.007094	-1.264869	8.106523	-0.447223	0.750857	-3.627029	-0.447223	0.750857	-3.627029	-0.447223	0.750857	-3.627029	0.000000	0.000000	0.000000	0.000000	0.000000	0.000000	0.000000	0.000000	13.722380	-24.772140	-41.012800	7.183234	-12.677290	-14.999390	10.656370	0.000000	0.000000	0.000000	0.000000	0.000000	0.000000	0.000000	0.000000	0.000000	0.000000	0.000000	0.000000	0.000000	0.000000	0.000000	0.000000	0.000000	0.000000	0.000000	0.000000	0.000000	0.000000	0.000000	0.000000	0.000000	0.000000	0.000000	0.000000	0.000000	0.000000	0.000000	0.000000	0.000000	0.000000	0.000000	0.000000	0.000000	0.000000	0.000000	0.000000	0.000000	0.000000	0.000000	0.000000	0.000000	0.000000	0.000000	0.000000	0.000000	0.000000	-16.619550	-45.563710	41.864460	1.665876	-13.218260	8.507840	-13.864200	0.000000	0.000000	0.000000	0.000000	0.000000	0.000000	0.000000	0.000000	0.000000	0.000000	0.000000	0.000000	0.000000	0.000000	0.000000	0.000000	0.000000	0.000000	0.000000	0.000000	0.000000	0.000000	0.000000	0.000000	0.000000	0.000000	0.000000	0.000000	0.000000	0.000000	0.000000	0.000000	0.000000	0.000000	0.000000	0.000000	0.000000	0.000000	0.000000	0.000000	0.000000	0.000000	0.000000	0.000000	0.000000	0.000000	0.000000	0.000000	15.225930	-2.485829	-16.338070	-0.346282	0.017616	-5.763463	-1.843309	-1.014368	-0.501245	-2.187890	0.000000	0.000000	8.299698	-0.245411	-5.541321	-1.141022	-0.053257	5.241016	-0.830437	0.248009	0.122560	-0.000001	0.000000	0.000000
	-8.9675	77.9684	-5.5057	-0.659938	-1.698141	7.749602	-0.319644	0.327160	-3.765761	-0.319644	0.327160	-3.765761	-0.319644	0.327160	-3.765761	0.000000	0.000000	0.000000	0.000000	0.000000	0.000000	0.000000	0.000000	14.269560	-24.230430	-38.673000	8.804263	-12.033080	-15.524890	9.618042	0.000000	0.000000	0.000000	0.000000	0.000000	0.000000	0.000000	0.000000	0.000000	0.000000	0.000000	0.000000	0.000000	0.000000	0.000000	0.000000	0.000000	0.000000	0.000000	0.000000	0.000000	0.000000	0.000000	0.000000	0.000000	0.000000	0.000000	0.000000	0.000000	0.000000	0.000000	0.000000	0.000000	0.000000	0.000000	0.000000	0.000000	0.000000	0.000000	0.000000	0.000000	0.000000	0.000000	0.000000	0.000000	0.000000	0.000000	0.000000	0.000000	0.000000	-16.128470	-45.893580	42.898440	3.209589	-14.226360	9.593276	-14.690070	0.000000	0.000000	0.000000	0.000000	0.000000	0.000000	0.000000	0.000000	0.000000	0.000000	0.000000	0.000000	0.000000	0.000000	0.000000	0.000000	0.000000	0.000000	0.000000	0.000000	0.000000	0.000000	0.000000	0.000000	0.000000	0.000000	0.000000	0.000000	0.000000	0.000000	0.000000	0.000000	0.000000	0.000000	0.000000	0.000000	0.000000	0.000000	0.000000	0.000000	0.000000	0.000000	0.000000	0.000000	0.000000	0.000000	0.000000	0.000000	16.148380	-2.488913	-15.302590	-0.221268	0.011173	-5.824182	-2.265756	-0.996762	-0.499384	-2.042578	0.000000	0.000000	8.706112	-0.177352	-4.517923	-0.569568	-0.027641	5.398507	-0.449147	-0.032556	-0.013551	-0.000001	0.000000	0.000000
	-9.9304	78.0009	-5.2918	-1.254774	-2.190729	7.318130	-0.221640	0.151093	-3.903993	-0.221640	0.151093	-3.903993	-0.221640	0.151093	-3.903993	0.000000	0.000000	0.000000	0.000000	0.000000	0.000000	0.000000	0.000000	14.749990	-23.775520	-37.288700	10.078820	-11.656360	-15.728540	9.077374	0.000000	0.000000	0.000000	0.000000	0.000000	0.000000	0.000000	0.000000	0.000000	0.000000	0.000000	0.000000	0.000000	0.000000	0.000000	0.000000	0.000000	0.000000	0.000000	0.000000	0.000000	0.000000	0.000000	0.000000	0.000000	0.000000	0.000000	0.000000	0.000000	0.000000	0.000000	0.000000	0.000000	0.000000	0.000000	0.000000	0.000000	0.000000	0.000000	0.000000	0.000000	0.000000	0.000000	0.000000	0.000000	0.000000	0.000000	0.000000	0.000000	0.000000	-15.575200	-46.243480	43.667170	4.769069	-14.713660	9.562612	-15.550490	0.000000	0.000000	0.000000	0.000000	0.000000	0.000000	0.000000	0.000000	0.000000	0.000000	0.000000	0.000000	0.000000	0.000000	0.000000	0.000000	0.000000	0.000000	0.000000	0.000000	0.000000	0.000000	0.000000	0.000000	0.000000	0.000000	0.000000	0.000000	0.000000	0.000000	0.000000	0.000000	0.000000	0.000000	0.000000	0.000000	0.000000	0.000000	0.000000	0.000000	0.000000	0.000000	0.000000	0.000000	0.000000	0.000000	0.000000	0.000000	16.938230	-2.426817	-14.090420	0.257445	-0.013291	-5.834738	-2.853783	-0.850349	-0.434055	-1.955468	0.000000	0.000000	9.546124	-0.117886	-3.547380	-0.419423	-0.020124	5.562857	-0.204628	-0.053920	-0.024833	-0.000001	0.000000	0.000000
	-10.7574	78.0267	-5.1859	-1.624143	-2.333037	6.886926	-0.148244	0.244110	-3.945157	-0.148244	0.244110	-3.945157	-0.148244	0.244110	-3.945157	0.000000	0.000000	0.000000	0.000000	0.000000	0.000000	0.000000	0.000000	14.963040	-23.457840	-37.314040	10.595740	-11.629030	-15.723290	9.113275	0.000000	0.000000	0.000000	0.000000	0.000000	0.000000	0.000000	0.000000	0.000000	0.000000	0.000000	0.000000	0.000000	0.000000	0.000000	0.000000	0.000000	0.000000	0.000000	0.000000	0.000000	0.000000	0.000000	0.000000	0.000000	0.000000	0.000000	0.000000	0.000000	0.000000	0.000000	0.000000	0.000000	0.000000	0.000000	0.000000	0.000000	0.000000	0.000000	0.000000	0.000000	0.000000	0.000000	0.000000	0.000000	0.000000	0.000000	0.000000	0.000000	0.000000	-15.269990	-46.007280	43.274750	4.970628	-14.621930	9.502935	-15.445650	0.000000	0.000000	0.000000	0.000000	0.000000	0.000000	0.000000	0.000000	0.000000	0.000000	0.000000	0.000000	0.000000	0.000000	0.000000	0.000000	0.000000	0.000000	0.000000	0.000000	0.000000	0.000000	0.000000	0.000000	0.000000	0.000000	0.000000	0.000000	0.000000	0.000000	0.000000	0.000000	0.000000	0.000000	0.000000	0.000000	0.000000	0.000000	0.000000	0.000000	0.000000	0.000000	0.000000	0.000000	0.000000	0.000000	0.000000	0.000000	17.344790	-2.309824	-12.946360	0.617465	-0.031440	-5.833327	-3.598654	-0.418509	-0.217542	-1.624218	0.000000	0.000000	10.225050	-0.054829	-2.707555	-0.489203	-0.023997	5.669167	-0.093240	0.068033	0.032641	-0.000001	0.000000	0.000000
	-11.2171	78.0695	-5.1683	-1.749727	-2.212861	6.480498	-0.113133	0.414732	-3.813000	-0.113133	0.414732	-3.813000	-0.113133	0.414732	-3.813000	0.000000	0.000000	0.000000	0.000000	0.000000	0.000000	0.000000	0.000000	14.872120	-23.318190	-37.907110	10.430640	-11.833580	-15.772540	9.402253	0.000000	0.000000	0.000000	0.000000	0.000000	0.000000	0.000000	0.000000	0.000000	0.000000	0.000000	0.000000	0.000000	0.000000	0.000000	0.000000	0.000000	0.000000	0.000000	0.000000	0.000000	0.000000	0.000000	0.000000	0.000000	0.000000	0.000000	0.000000	0.000000	0.000000	0.000000	0.000000	0.000000	0.000000	0.000000	0.000000	0.000000	0.000000	0.000000	0.000000	0.000000	0.000000	0.000000	0.000000	0.000000	0.000000	0.000000	0.000000	0.000000	0.000000	-15.299290	-45.246100	42.161110	3.902504	-14.292220	9.755435	-14.686150	0.000000	0.000000	0.000000	0.000000	0.000000	0.000000	0.000000	0.000000	0.000000	0.000000	0.000000	0.000000	0.000000	0.000000	0.000000	0.000000	0.000000	0.000000	0.000000	0.000000	0.000000	0.000000	0.000000	0.000000	0.000000	0.000000	0.000000	0.000000	0.000000	0.000000	0.000000	0.000000	0.000000	0.000000	0.000000	0.000000	0.000000	0.000000	0.000000	0.000000	0.000000	0.000000	0.000000	0.000000	0.000000	0.000000	0.000000	0.000000	17.283020	-2.175036	-12.127980	0.837710	-0.042514	-5.810378	-3.871235	-0.018706	-0.006865	-1.594726	0.000000	0.000000	10.406340	-0.012638	-2.240789	-0.442298	-0.021818	5.737184	-0.035278	0.112074	0.053838	-0.000001	0.000000	0.000000
	-11.2852	78.1264	-5.2705	-1.715167	-1.945745	6.170026	-0.114748	0.476917	-3.540237	-0.114748	0.476917	-3.540237	-0.114748	0.476917	-3.540237	0.000000	0.000000	0.000000	0.000000	0.000000	0.000000	0.000000	0.000000	14.522540	-23.359090	-38.463390	9.757407	-12.188460	-15.983190	9.791943	0.000000	0.000000	0.000000	0.000000	0.000000	0.000000	0.000000	0.000000	0.000000	0.000000	0.000000	0.000000	0.000000	0.000000	0.000000	0.000000	0.000000	0.000000	0.000000	0.000000	0.000000	0.000000	0.000000	0.000000	0.000000	0.000000	0.000000	0.000000	0.000000	0.000000	0.000000	0.000000	0.000000	0.000000	0.000000	0.000000	0.000000	0.000000	0.000000	0.000000	0.000000	0.000000	0.000000	0.000000	0.000000	0.000000	0.000000	0.000000	0.000000	0.000000	-15.500660	-44.534370	41.690200	2.854127	-14.258750	9.774395	-14.594990	0.000000	0.000000	0.000000	0.000000	0.000000	0.000000	0.000000	0.000000	0.000000	0.000000	0.000000	0.000000	0.000000	0.000000	0.000000	0.000000	0.000000	0.000000	0.000000	0.000000	0.000000	0.000000	0.000000	0.000000	0.000000	0.000000	0.000000	0.000000	0.000000	0.000000	0.000000	0.000000	0.000000	0.000000	0.000000	0.000000	0.000000	0.000000	0.000000	0.000000	0.000000	0.000000	0.000000	0.000000	0.000000	0.000000	0.000000	0.000000	16.921000	-2.071124	-11.759040	1.107258	-0.054910	-5.702636	-3.558679	-0.233851	-0.121590	-1.967382	0.000000	0.000000	10.245590	-0.009767	-2.221872	-0.560611	-0.028590	5.704590	-0.086979	-0.008281	-0.003593	-0.000001	0.000000	0.000000
